# xmcd
#
# Track frame offsets:
#       150
#       73671
#       101425
#       125703
#       160261
#       178785
#       312716
#
# Disc length: 4341 seconds
#
# Revision: 2
# Processed by: cddbd v1.4PL0 Copyright (c) Steve Scherf et al.
# Submitted via: MusiCat 1.1
#
DISCID=6410f307
DTITLE=Acid Jam 2 - Acid Jam 2 CD2
DYEAR=1900
DGENRE=
TTITLE0=deep space divers
TTITLE1=tanz mekkanik
TTITLE2=tide
TTITLE3=deef
TTITLE4=just a point
TTITLE5=desert sands
TTITLE6=star map
EXTD=0\n\n\n
EXTT0=
EXTT1=
EXTT2=
EXTT3=
EXTT4=
EXTT5=
EXTT6=
PLAYORDER=
